/* XPM */
static char *macplatinum[] = {
/* columns rows colors chars-per-pixel */
"128 128 54 1 ",
". c #663366",
"X c #444444",
"o c #000088",
"O c #003399",
"+ c #0000AA",
"@ c #505089",
"# c #51518A",
"$ c #52528B",
"% c #53538C",
"& c #53538E",
"* c #54548D",
"= c #55558E",
"- c #56568F",
"; c #575790",
": c #585891",
"> c #595992",
", c #5A5A93",
"< c #5B5B94",
"1 c #5B5C95",
"2 c #5C5C95",
"3 c #5D5D96",
"4 c #5E5E97",
"5 c #5F5F98",
"6 c #606099",
"7 c #61619A",
"8 c #62629B",
"9 c #63639C",
"0 c #64649D",
"q c #65659E",
"w c #66669F",
"e c #6767A0",
"r c #6868A1",
"t c #6969A2",
"y c #6A6AA3",
"u c #6B6BA4",
"i c #6C6CA5",
"p c #6D6DA6",
"a c #6E6EA7",
"s c #6F6FA8",
"d c #7070A9",
"f c #7171AA",
"g c #7272AB",
"h c #7373AB",
"j c #7474AD",
"k c #7575AE",
"l c #7676AF",
"z c #7777AF",
"x c #3366CC",
"c c #993399",
"v c #FF0099",
"b c #CC3399",
"n c #999999",
"m c #DDDDDD",
"M c #FFFFFF",
/* pixels */
"99999999999999999999999999999999999999999999999999999999999999999999999999999999999999999999999999999999999999999999999999999999",
"99999999999999999999999999999999999999999999999999999999999999999999999999999999999999999999999999999999999999999999999999999999",
"99999999999999999999999999999999999999999999999999999999999999999999999999999999999999999999999999999999999999999999999999999999",
"99999999999999999999999999999999999999999999999999999999999999999999999999999999999999999999999999999999999999999999999999999999",
"99999999999999999999999999999999999999999999999999999999999999999999999999999999999999999999999999999999999999999999999999999999",
"99999999999999999999999999999999999999999999999999999999999999999999999999999999999999999999999999999999999999999999999999999999",
"99999999999999999999999999999999999999999999999999999999999999999999999999999999999999999999999999999999999999999999999999999999",
"99999999999999999999999999999999999999999999999999999999999999999999999999999999999999999999999999999999999999999999999999999999",
"99999999999999999999999999999999999999999999999999999999999999999999999999999999999999999999999999999999999999999999999999999999",
"99999999999999999999999999999999999999999999999999999999999999999999999999999999999999999999999999999999999999999999999999999999",
"99999999999999999999999999999999999999999999999999999999999999999999999999999999999999999999999999999999999999999999999999999999",
"99999999999999999999999999999999999999999999999999999999999999999999999999999999999999999999999999999999999999999999999999999999",
"99999999999999999999999999999999999999999999999999999999999999999999999999999999999999999999999999999999999999999999999999999999",
"99999999999999999999999999999999999999999999999999999999999999999999999999999999999999999999999999999999999999999999999999999999",
"99999999999999999999999999999999999999999999999999999999999999999999999999999999999999999999999999999999999999999999999999999999",
"99999999999999999999999999999999999999999999999999999999999999999999999999999999999999999999999999999999999999999999999999999999",
"99999999999999999999999999999999999999999999999999999999999999999999999999999999999999999999999999999999999999999999999999999999",
"99999999999999999999999999999999999999999999999999999999999999999999999999999999999999999999999999999999999999999999999999999999",
"99999999999999999999999999999999999999999999999999999999999999999999999999999999999999999999999999999999999999999999999999999999",
"99999999999999999999999999999999999999999999999999999999999999999999999999999999999999999999999999999999999999999999999999999999",
"99999999999999999999999999999999999999999999999999999999999999999999999999999999999999999999999999999999999999999999999999999999",
"99999999999999999999999999999999999999999999999999999999999999999999999999999999999999999999999999999999999999999999999999999999",
"99999999999999999999999999999999999999999999999999999999999999999999999999999999999999999999999999999999999999999999999999999999",
"99999999999999999999999999999999999999999999999999999999999999999999999999999999999999999999999999999999999999999999999999999999",
"99999999999999999999999999999999999999999999999999999999999999999999999999999999999999999999999999999999999999999999999999999999",
"99999999999999999999999999999999999999999999999999999999999999999999999999999999999999999999999999999999999999999999999999999999",
"99999999999999999999999999999999999999999999999999999999999999999999999999999999999999999999999999999999999999999999999999999999",
"99999999999999999999999999999999999999999999999999999999999999999999999999999999999999999999999999999999999999999999999999999999",
"99999999999999999999999999999999999999999999999999999999999999999999999999999999999999999999999999999999999999999999999999999999",
"99999999999999999999999999999999999999999999999999999999999999999999999999999999999999999999999999999999999999999999999999999999",
"99999999999999999999999999999999999999999999999999999999999999999999999999999999999999999999999999999999999999999999999999999999",
"99999999999999999999999999999999999999999999999999999999999999900999999999999999999999999999999999999999999999999999999999999999",
"99999999999999999999999999999999999999999999999999999999999999qyuw99999999999999999999999999999999999999999999999999999999999999",
"99999999999999999999999999999999999999999999999999999999999990ujsq77999999999999999999999999999999999999999999999999999999999999",
"9999999999999999999999999999999999999999999999999999999999999qhly3>6999999999999999999999999999999999999999999999999999999999999",
"9999999999999999999999999999999999999999999999999999999999999yzd7:%6999999999999999999900999999999999999999999999999999999999999",
"999999999999999999999999999999999999999999999999999999999999qdlt:%>89999999999999998wyai6599999999999999999999999999999999999999",
"999999999999999999999999999999999999999999999999999999999999rgh9%%59999999999998qtiasapr<;99999999999999999999999999999999999999",
"999999999999999999999999999999999999999999999999999999999990ilp2%:89999999980euassputre0,@09999999999999999999999999999999999999",
"99999999999999999999999999999999999999999999999999999999999qdke-@38899990wyasspiyrewqqq03@79999999999999999999999999999999999999",
"99999999999999999999999999999999999999999999999999999999999rll5#$3799qyassaiytewqqqqqqq05%,9999999999999999999999999999999999999",
"99999999999999999999999999999999999999999999999999999999990plh>@=7riasaputreqqqqqqqqqqqq8;*9999999999999999999999999999999999999",
"9999999999999999999999999999999999999999999999999999999999thzg-#2usaiyreqqqqqqqqqqqqqqqq9<@9999999999999999999999999999999999999",
"999999999999999999999999999999999999999999999999999989999egkzu$*9rrewqqqqqqqqqqqqqqqqqqq04@5999999999999999999999999999999999999",
"999999999999999999999999999999999999999999999999999989etpfkzg6&-8qqqqqqqqqqqqqqqqqqqqqqq06*>999999999999999999999999999999999999",
"99999999999999999999999999999999999999999999999999qrissapfzzu:$<9qqqqqqqqqqqqqqqqqqqqqqqq8:%099999999999999999999999999999999999",
"99999999999999999999999999999999999999999999990euassaiyrrszk0*&30qqqqqqerreqqqqqqqqqqqqqq0<@899999999999999999999999999999999999",
"9999999999999999999999999999999999999899990wtpasaiyrewqqeszg6$=6qq0qqwydgae0qqqqqqqqqqqqq04#399999999999999999999999999999999999",
"999999999999999999999999999999999999999wypasaiutewqqqqqqegza2#:8qqqqqrfzlu760qqqqqqqqqqqq07=;99999999999999999999999999999999999",
"999999999999999999999999999999999990tiasaputreqqqqqqqqqqykzu:$<9qqqqqygld9<39qqqqqqqqqqqqq9>#99999999999999999999999999999999999",
"99999999999999999999999999998990rypsspiyrewqqqqqqqqqqqqqulle-*20qqqqqrsgu7><7qqqqqqqqqqqqq02@79999999999999999999999999999999999",
"9999999999999999999999999999wyassaiyrewqqqqqqqqqqqqqqqqwpzj8**50qqqqqepfp9<>5qqqqqqqqqqqqq05%<9999999999999999999999999999999999",
"99999999999999999999999999ikfaputrwqqqqqqqqqq0qqqqqqqqqqszf5*-6qqqqqqwudsw2>40qqqqqqqqqqqq07;-9999999999999999999999999999999999",
"99999999999999999999999999yhpreqqqqqqqqqqqqqweewqqqqqqqefzs3&:8qqqqqqqtsdr4:28qqqqqqqqqqqqq9,@9999999999999999999999999999999999",
"999999999999999999999999990fyqqqqqqqqqqqqqwtpspe0qqqqqqrgzp2*,9qqqqqqqease<*:70qqqqqqqqqqqq03@6999999999999999999999999999999999",
"999999999999999999999999999siwqqqqqqqqqqqqrdzlp980qqqqqyjly,*<9qqqqqqqeuy5*#>8qqqqqqqqqqqqq06%>999999999999999999999999999999999",
"999999999999999999999999999uaeqqqqqqqqqqqwyjzf0259qqqqqyklr:*29qqqqqqqww9<->50qqqqqqqqqqqqqq8:*999999999999999999999999999999999",
"999999999999999999999999999edtqqqqqqqqqqqqtdgu6,28qqqqwukke:=29qqqqqqqqq96690qqqqqqqqqqqqqqq0<@999999999999999999999999999999999",
"9999999999999999999999999990duqqqqqqqqqqqqeafi8,,6qqqqwukjq-=30qqqqqqqqqqqqqqqqqqqqqqqqqqqqq04#499999999999999999999999999999999",
"9999999999999999999999999989ppwqqqqqqqqqqqeufa02>50qqqwilg9==50qqqqqqqqqqqqqqqqqqqqqqqqqqqqq07=:99999999999999999999999999999999",
"9999999999999999999999999999ysrqqqqqqqqqqqwydse3:29qqqwplg9--60qqqqqqqqqqqqqqqqqqqqqqqqqqqqqq9>$99999999999999999999999999999999",
"9999999999999999999999999999wdyqqqqqqqqqqqqrase2=>7qqqwplg8-:6qqqqqqqqqqqqqqqqqqqqqqqqqqqqqqq02@89999999999999999999999999999999",
"99999999999999999999999999999diqqqqqqqqqqqqeuu6=#:7qqqwpkf6=:60qqqqqqqqqqqqqqqqqqqqqqqqqqqqqq05$39999999999999999999999999999999",
"99999999999999999999999999999upe0qqqqqqqqqqwe0<=;49qqqwpkd6=:60qqqqqqqqqqqqqqqqqqqqqqqqqqqqqq07-;9999999999999999999999999999999",
"99999999999999999999999999999rsrqqqqqqqqqqqqq95569qqqqwpkd8-:6qqqqqqqqqqqqqqqqqqqqqqqqqqqqqqqq9,@9999999999999999999999999999999",
"99999999999999999999999999999qfyqqqqqqqqqqqqq000qqqqqqwpjf8;:6qqqqqqqq0qqqqqqqqqqqqqqqqqqqqqqq03@7999999999999999999999999999999",
"999999999999999999999999999999siwqqqqqqqqqqqqqqqqqqqqqwujf9;:60qqqqqqqqqqqqqqqqqqqqqqqqqqqqqqq05%<999999999999999999999999999999",
"999999999999999999999999999999uaeqqqqqqqqqqqqqqqqqqqqqwujf0:;50qqqqqqqqqqqqqqqqqqqqqqqqqqqqqqqq7;=999999999999999999999999999999",
"999999999999999999999999999999rstqqqqqqqqqqqqqqqqqqqqqwugfq::50qqqqqqweewqqqqqqqqqqqqqqqqqqqqqq9,@999999999999999999999999999999",
"999999999999999999999999999999qduqqqqqqqqqqqqqqqqqqqqqwyfge,:50qqweruasar0qqqqqqqqq0qqqqqqqqqqq03@699999999999999999999999999999",
"9999999999999999999999999999999aiwqqqqqqqqqqqqqqqqqqqqqrdgt1:4qrypdjlzlp860qqqqqqqqqqqqqqqqqqqq06%,99999999999999999999999999999",
"9999999999999999999999999999999uaeqqqqqqqqqqqqqqqqqqqqqeshu4,9phlzzzlha9,39qqqqqqqqqqqweewqqqqqq8:*99999999999999999999999999999",
"9999999999999999999999999999999edtqqqqqqqqqqqqqqqqqqqqqeaha98plzlhsueeq2-29qqqqqqqqqwyaaueqqqqqq0<@99999999999999999999999999999",
"99999999999999999999999999999990duqqqqqqqqqqqqqqqqqqqqqwigdeeiauw62>290<-<9qqqqqqqqepjzhy090qqqq04#49999999999999999999999999999",
"99999999999999999999999999999989apwqqqqqqqqqqqqqqqqqqqqwyfsw652>=&$=5yt2=,8qqqqqqwrsjzju6259qqqq07=:9999999999999999999999999999",
"99999999999999999999999999999999ysrqqqqqqqqqqqqqqqqqqqqqrpt3=&$$*-,5tgp4=,8qqqqqeugzzjt2==39qqqqq9>$9999999999999999999999999999",
"99999999999999999999999999999999wdyqqqqqqqqqqqqqqqqqqqqqee8:*=:2579wpja5=,8qqweysjzzfq>##:60qqqqq02@8999999999999999999999999999",
"999999999999999999999999999999999diqqqqqqqqqqqqqqqq0qqqqqq745690qqqepga6->8qwtajzzju5=#$:59qqqqqq05$2999999999999999999999999999",
"999999999999999999999999999999999ppeqqqqqqqqqqqqqqqqqqqqqq00qqqqqqqwugs9:,9rigzzjaq,$@=<60qqqqqqq07--999999999999999999999999999",
"999999999999999999999999999999999tsrqqqqqqqqqqqqqqqqqqqqqqqqqqqqqqqqyddw<3yflzjfe2=##:490qqqqqqqqq9,#999999999999999999999999999",
"999999999999999999999999999999999qdyqqqqqqqqqqqqqqqqqqqqqqqqqqqqqqqwyfjy6wgjzgr5=@#=<60qqqqqqqqqqq03@699999999999999999999999999",
"9999999999999999999999999999999999siwqqqqqqqqqqqqqqqqqqqqqqqqqqqwrypdjlaeudae4=##*,690qqqqqqqqqqqq05%<99999999999999999999999999",
"9999999999999999999999999999999999iae0qqqqqqqertreeewwwwweeertyisgjlzjguew92-##=,59qqqqqqqqqqqqqqq08;*99999999999999999999999999",
"9999999999999999999999999999999999rstqqqqqqqeigfaappiiuipaasdgjlzzjgfayw05-##*,690qqqqqqqqqqqqqqqqq9<@99999999999999999999999999",
"99999999999999999999999999999999990duqqqqqqqyjzjdffggggjjjjkkkkhdaue954892$$>580qqqqqqqqqqqqqqqqqqq04@59999999999999999999999999",
"99999999999999999999999999999999999aiw0qqqqwuljityupaasdsaaaiye0752:==>9w4->60qqqqqqqqqqqqqqqqqq0986<@;9999999999999999999999999",
"99999999999999999999999999999999999uarqqqqqwuar65568889987653,:-==**=:5ru0229qqqqqqqqqqqqqqq008752:=#%;9999999999999999999999999",
"99999999999999999999999999999999999edtqqqqqqew6<,>>>:>::;;;=**=-:>,246qiar6369qqqqqqqqqq009753>-%#%:4999999999999999999999999999",
"999999999999999999999999999999999999duqqqqqqq075332,,,>:>>>>,23567890qwusu94470qqqqqq09764,;*#$;28999999999999999999999999999999",
"999999999999999999999999999999999999ppe0qqqqqq0099887667777899000qqqqqwyape6359qq09864<:*$#-<69999999999999999999999999999999999",
"999999999999999999999999999999999999rsrqqqqqqqqqqqqqqqqqqqqqqqqqqqqqqqqeuat93277752>=%@*>599999999999999999999999999999999999999",
"999999999999999999999999999999999999wdyqqqqqqqqqqqqqqqqqqqqqqqqqqqqqqqqwrpiw<;::-%#$:3899999999999999999999999999999999999999999",
"9999999999999999999999999999999999999diqqqqqqqqqqqqqqqqqqqqqqqqqqqqqq0099rpt9%@=;27999999999999999999999999999999999999999999999",
"9999999999999999999999999999999999999iae0qqqqqqqqqqqqqqqqqqqqqqqqq09864<>9uuw><5999999999999999999999999999999999999999999999999",
"9999999999999999999999999999999999999rstqqqqqqqqqqqqqqqqqqqqqq008752>-%@=2rut945789999999999999999999999999999999999999999999999",
"9999999999999999999999999999999999999qfyqqqqqqqqqqqqqqqqqq009753,-%#$:3890qtyw75579999999999999999999999999999999999999999999999",
"99999999999999999999999999999999999999siwqqqqqqqqqqqqqq09764,;*#$-269999890ere07557999999999999999999999999999999999999999999999",
"99999999999999999999999999999999999999uaeqqqqqqqqqq098652:=$@=<699999999999qere9656899999999999999999999999999999999999999999999",
"99999999999999999999999999999999999999edtqqqqqq008752>=%#%>49099999999999999qerq854589999999999999999999999999999999999999999999",
"999999999999999999999999999999999999990duqq009753,;%#$:3899999999999999999999wew93:>79999999999999999999999999999999999999999999",
"999999999999999999999999999999999999999aiq764<;*##-<60999999999999999999999990qq7;#:79999999999999999999999999999999999999999999",
"999999999999999999999999999999999999999ty5:=$#*>599999999999999999999999999999093==599999999999999999999999999999999999999999999",
"999999999999999999999999999999999999999q8=*:399999999999999999999999999999999998436899999999999999999999999999999999999999999999",
"99999999999999999999999999999999999999997899999999999999999999999999999999999999999999999999999999999999999999999999999999999999",
"99999999999999999999999999999999999999999999999999999999999999999999999999999999999999999999999999999999999999999999999999999999",
"99999999999999999999999999999999999999999999999999999999999999999999999999999999999999999999999999999999999999999999999999999999",
"99999999999999999999999999999999999999999999999999999999999999999999999999999999999999999999999999999999999999999999999999999999",
"99999999999999999999999999999999999999999999999999999999999999999999999999999999999999999999999999999999999999999999999999999999",
"99999999999999999999999999999999999999999999999999999999999999999999999999999999999999999999999999999999999999999999999999999999",
"99999999999999999999999999999999999999999999999999999999999999999999999999999999999999999999999999999999999999999999999999999999",
"99999999999999999999999999999999999999999999999999999999999999999999999999999999999999999999999999999999999999999999999999999999",
"99999999999999999999999999999999999999999999999999999999999999999999999999999999999999999999999999999999999999999999999999999999",
"99999999999999999999999999999999999999999999999999999999999999999999999999999999999999999999999999999999999999999999999999999999",
"99999999999999999999999999999999999999999999999999999999999999999999999999999999999999999999999999999999999999999999999999999999",
"99999999999999999999999999999999999999999999999999999999999999999999999999999999999999999999999999999999999999999999999999999999",
"99999999999999999999999999999999999999999999999999999999999999999999999999999999999999999999999999999999999999999999999999999999",
"99999999999999999999999999999999999999999999999999999999999999999999999999999999999999999999999999999999999999999999999999999999",
"99999999999999999999999999999999999999999999999999999999999999999999999999999999999999999999999999999999999999999999999999999999",
"99999999999999999999999999999999999999999999999999999999999999999999999999999999999999999999999999999999999999999999999999999999",
"99999999999999999999999999999999999999999999999999999999999999999999999999999999999999999999999999999999999999999999999999999999",
"99999999999999999999999999999999999999999999999999999999999999999999999999999999999999999999999999999999999999999999999999999999",
"99999999999999999999999999999999999999999999999999999999999999999999999999999999999999999999999999999999999999999999999999999999",
"99999999999999999999999999999999999999999999999999999999999999999999999999999999999999999999999999999999999999999999999999999999",
"99999999999999999999999999999999999999999999999999999999999999999999999999999999999999999999999999999999999999999999999999999999",
"99999999999999999999999999999999999999999999999999999999999999999999999999999999999999999999999999999999999999999999999999999999",
"99999999999999999999999999999999999999999999999999999999999999999999999999999999999999999999999999999999999999999999999999999999",
"99999999999999999999999999999999999999999999999999999999999999999999999999999999999999999999999999999999999999999999999999999999",
"99999999999999999999999999999999999999999999999999999999999999999999999999999999999999999999999999999999999999999999999999999999"
};

